# xmcd
# 
# Track frame offsets:
#     150
#     17445
#     33238
#     56225
# 
# Disc length: 1005
# 
# Revision: 0
# Processed by: cddbd v1.5.2PL0 Copyright (c) Steve Scherf et al.
# Submitted via: BonkEnc v1.0.8
# 
DISCID=2803eb04
DTITLE=サカナクション - セントレイ
DYEAR=2008
DGENRE=Techno
TTITLE0=セントレイ
TTITLE1=Ame（A）
TTITLE2=もどかしい日々
TTITLE3=夜の東側（「NIGTH　FISHING　IS　GOOD」TOUR　IN　2008　SAPPORO）
EXTD=
EXTT0=
EXTT1=
EXTT2=
EXTT3=
PLAYORDER=
